#N canvas 1536 -255 1920 1035 10;
#X obj 32 143 print;
#X obj 816 753 dac~;
#X floatatom 146 30 5 0 0 0 - - -, f 5;
#X floatatom 160 192 5 0 0 0 - - -, f 5;
#X obj 604 241 hradio 15 1 0 16 empty empty empty 0 -8 0 10 -257985
-258113 -1 3;
#X obj 18 12 bng 15 250 50 0 empty empty empty 17 7 0 10 -262144 -1
-1;
#X obj 89 104 py jsonreader reader;
#X msg 71 23 0;
#X obj 586 74 py jsonreader readeachword;
#X floatatom 736 28 5 0 0 0 - - -, f 5;
#X floatatom 604 144 5 0 0 0 - - -, f 5;
#X obj 516 170 print;
#X floatatom 193 316 5 0 0 0 - - -, f 5;
#X obj 137 319 tgl 15 0 empty empty empty 17 7 0 10 -262144 -1 -1 0
1;
#X floatatom 126 567 5 0 0 0 - - -, f 5;
#X obj 192 523 + 1;
#X msg 25 287 0;
#X obj 127 524 float;
#X obj 51 220 select;
#X floatatom 56 366 5 0 0 0 - - -, f 5;
#X obj 339 119 + 1;
#X obj 295 116 float;
#X floatatom 294 157 5 0 0 0 - - -, f 5;
#X obj 293 78 metro 1000;
#X floatatom 344 27 5 0 0 0 - - -, f 5;
#X obj 309 40 tgl 15 0 empty empty empty 17 7 0 10 -262144 -1 -1 0
1;
#X obj 243 21 bng 15 250 50 0 empty empty empty 17 7 0 10 -262144 -1
-1;
#X msg 225 85 0;
#X obj 216 52 delay 150;
#X text 135 0 contador de tweets;
#X text 586 28 contador de palabras;
#X floatatom 602 192 5 0 0 0 - - -, f 5;
#X obj 595 168 mod 25, f 11;
#N canvas 1964 26 450 300 o1 0;
#X obj 29 28 inlet;
#X obj 29 56 tgl 15 0 empty empty empty 0 -6 0 8 -262144 -1 -1 1 1
;
#X obj 29 78 metro 80;
#X obj 29 105 random 100;
#X obj 29 163 + 20;
#X obj 29 190 mtof;
#X obj 29 219 osc~;
#X obj 30 249 outlet~;
#X obj 88 24 r tempo;
#X floatatom 88 56 5 0 0 0 - - -, f 5;
#X obj 177 37 r ambitus;
#X floatatom 177 64 5 0 0 0 - - -, f 5;
#X obj 237 94 r offset;
#X floatatom 237 119 5 0 0 0 - - -, f 5;
#X connect 0 0 1 0;
#X connect 1 0 2 0;
#X connect 2 0 3 0;
#X connect 3 0 4 0;
#X connect 4 0 5 0;
#X connect 5 0 6 0;
#X connect 6 0 7 0;
#X connect 8 0 9 0;
#X connect 9 0 2 1;
#X connect 10 0 11 0;
#X connect 11 0 3 1;
#X connect 12 0 13 0;
#X connect 13 0 4 1;
#X restore 517 386 pd o1;
#X obj 1187 51 s tempo;
#X floatatom 1187 28 5 0 0 0 - - -, f 5;
#X floatatom 1244 29 5 0 0 0 - - -, f 5;
#X obj 1240 54 s ambitus;
#X floatatom 1305 32 5 0 0 0 - - -, f 5;
#X obj 1305 55 s offset;
#X obj 1086 680 line~;
#X msg 1086 656 \$1 20;
#X obj 1157 653 hsl 128 15 0 1 0 0 empty empty empty -2 -6 0 8 -262144
-1 -1 0 1;
#N canvas 2124 105 450 300 trick 0;
#X obj 150 93 bng 15 250 50 0 empty empty empty 17 7 0 10 -262144 -1
-1;
#X msg 149 171 0;
#X obj 150 129 delay 150;
#X obj 144 56 inlet;
#X obj 147 212 outlet;
#X obj 248 91 outlet;
#X connect 0 0 2 0;
#X connect 0 0 5 0;
#X connect 1 0 4 0;
#X connect 2 0 1 0;
#X connect 3 0 0 0;
#X restore 507 342 pd trick;
#X obj 521 364 tgl 15 0 empty empty empty 17 7 0 10 -262144 -1 -1 0
1;
#N canvas 1964 26 450 300 o1 0;
#X obj 29 28 inlet;
#X obj 29 56 tgl 15 0 empty empty empty 0 -6 0 8 -262144 -1 -1 0 1
;
#X obj 29 78 metro 80;
#X obj 29 105 random 100;
#X obj 29 163 + 20;
#X obj 29 190 mtof;
#X obj 29 219 osc~;
#X obj 30 249 outlet~;
#X obj 88 24 r tempo;
#X floatatom 88 56 5 0 0 0 - - -, f 5;
#X obj 177 37 r ambitus;
#X floatatom 177 64 5 0 0 0 - - -, f 5;
#X obj 237 94 r offset;
#X floatatom 237 119 5 0 0 0 - - -, f 5;
#X connect 0 0 1 0;
#X connect 1 0 2 0;
#X connect 2 0 3 0;
#X connect 3 0 4 0;
#X connect 4 0 5 0;
#X connect 5 0 6 0;
#X connect 6 0 7 0;
#X connect 8 0 9 0;
#X connect 9 0 2 1;
#X connect 10 0 11 0;
#X connect 11 0 3 1;
#X connect 12 0 13 0;
#X connect 13 0 4 1;
#X restore 572 386 pd o1;
#N canvas 2124 105 450 300 trick 0;
#X obj 150 93 bng 15 250 50 0 empty empty empty 17 7 0 10 -262144 -1
-1;
#X msg 149 171 0;
#X obj 150 129 delay 150;
#X obj 144 56 inlet;
#X obj 147 212 outlet;
#X obj 248 91 outlet;
#X connect 0 0 2 0;
#X connect 0 0 5 0;
#X connect 1 0 4 0;
#X connect 2 0 1 0;
#X connect 3 0 0 0;
#X restore 562 342 pd trick;
#X obj 576 364 tgl 15 0 empty empty empty 17 7 0 10 -262144 -1 -1 0
1;
#N canvas 1964 26 450 300 o1 0;
#X obj 29 28 inlet;
#X obj 29 56 tgl 15 0 empty empty empty 0 -6 0 8 -262144 -1 -1 0 1
;
#X obj 29 78 metro 80;
#X obj 29 105 random 100;
#X obj 29 163 + 20;
#X obj 29 190 mtof;
#X obj 29 219 osc~;
#X obj 30 249 outlet~;
#X obj 88 24 r tempo;
#X floatatom 88 56 5 0 0 0 - - -, f 5;
#X obj 177 37 r ambitus;
#X floatatom 177 64 5 0 0 0 - - -, f 5;
#X obj 237 94 r offset;
#X floatatom 237 119 5 0 0 0 - - -, f 5;
#X connect 0 0 1 0;
#X connect 1 0 2 0;
#X connect 2 0 3 0;
#X connect 3 0 4 0;
#X connect 4 0 5 0;
#X connect 5 0 6 0;
#X connect 6 0 7 0;
#X connect 8 0 9 0;
#X connect 9 0 2 1;
#X connect 10 0 11 0;
#X connect 11 0 3 1;
#X connect 12 0 13 0;
#X connect 13 0 4 1;
#X restore 629 385 pd o1;
#N canvas 2124 105 450 300 trick 0;
#X obj 150 93 bng 15 250 50 0 empty empty empty 17 7 0 10 -262144 -1
-1;
#X msg 149 171 0;
#X obj 150 129 delay 150;
#X obj 144 56 inlet;
#X obj 147 212 outlet;
#X obj 248 91 outlet;
#X connect 0 0 2 0;
#X connect 0 0 5 0;
#X connect 1 0 4 0;
#X connect 2 0 1 0;
#X connect 3 0 0 0;
#X restore 619 341 pd trick;
#X obj 633 363 tgl 15 0 empty empty empty 17 7 0 10 -262144 -1 -1 0
1;
#N canvas 1964 26 450 300 o1 0;
#X obj 29 28 inlet;
#X obj 29 56 tgl 15 0 empty empty empty 0 -6 0 8 -262144 -1 -1 0 1
;
#X obj 29 78 metro 80;
#X obj 29 105 random 100;
#X obj 29 163 + 20;
#X obj 29 190 mtof;
#X obj 29 219 osc~;
#X obj 30 249 outlet~;
#X obj 88 24 r tempo;
#X floatatom 88 56 5 0 0 0 - - -, f 5;
#X obj 177 37 r ambitus;
#X floatatom 177 64 5 0 0 0 - - -, f 5;
#X obj 237 94 r offset;
#X floatatom 237 119 5 0 0 0 - - -, f 5;
#X connect 0 0 1 0;
#X connect 1 0 2 0;
#X connect 2 0 3 0;
#X connect 3 0 4 0;
#X connect 4 0 5 0;
#X connect 5 0 6 0;
#X connect 6 0 7 0;
#X connect 8 0 9 0;
#X connect 9 0 2 1;
#X connect 10 0 11 0;
#X connect 11 0 3 1;
#X connect 12 0 13 0;
#X connect 13 0 4 1;
#X restore 684 385 pd o1;
#N canvas 2124 105 450 300 trick 0;
#X obj 150 93 bng 15 250 50 0 empty empty empty 17 7 0 10 -262144 -1
-1;
#X msg 149 171 0;
#X obj 150 129 delay 150;
#X obj 144 56 inlet;
#X obj 147 212 outlet;
#X obj 248 91 outlet;
#X connect 0 0 2 0;
#X connect 0 0 5 0;
#X connect 1 0 4 0;
#X connect 2 0 1 0;
#X connect 3 0 0 0;
#X restore 674 341 pd trick;
#X obj 688 363 tgl 15 0 empty empty empty 17 7 0 10 -262144 -1 -1 0
1;
#N canvas 1964 26 450 300 o1 0;
#X obj 29 28 inlet;
#X obj 29 56 tgl 15 0 empty empty empty 0 -6 0 8 -262144 -1 -1 0 1
;
#X obj 29 78 metro 80;
#X obj 29 105 random 100;
#X obj 29 163 + 20;
#X obj 29 190 mtof;
#X obj 29 219 osc~;
#X obj 30 249 outlet~;
#X obj 88 24 r tempo;
#X floatatom 88 56 5 0 0 0 - - -, f 5;
#X obj 177 37 r ambitus;
#X floatatom 177 64 5 0 0 0 - - -, f 5;
#X obj 237 94 r offset;
#X floatatom 237 119 5 0 0 0 - - -, f 5;
#X connect 0 0 1 0;
#X connect 1 0 2 0;
#X connect 2 0 3 0;
#X connect 3 0 4 0;
#X connect 4 0 5 0;
#X connect 5 0 6 0;
#X connect 6 0 7 0;
#X connect 8 0 9 0;
#X connect 9 0 2 1;
#X connect 10 0 11 0;
#X connect 11 0 3 1;
#X connect 12 0 13 0;
#X connect 13 0 4 1;
#X restore 739 384 pd o1;
#N canvas 2124 105 450 300 trick 0;
#X obj 150 93 bng 15 250 50 0 empty empty empty 17 7 0 10 -262144 -1
-1;
#X msg 149 171 0;
#X obj 150 129 delay 150;
#X obj 144 56 inlet;
#X obj 147 212 outlet;
#X obj 248 91 outlet;
#X connect 0 0 2 0;
#X connect 0 0 5 0;
#X connect 1 0 4 0;
#X connect 2 0 1 0;
#X connect 3 0 0 0;
#X restore 729 340 pd trick;
#X obj 743 362 tgl 15 0 empty empty empty 17 7 0 10 -262144 -1 -1 0
1;
#N canvas 1964 26 450 300 o1 0;
#X obj 29 28 inlet;
#X obj 29 56 tgl 15 0 empty empty empty 0 -6 0 8 -262144 -1 -1 0 1
;
#X obj 29 78 metro 80;
#X obj 29 105 random 100;
#X obj 29 163 + 20;
#X obj 29 190 mtof;
#X obj 29 219 osc~;
#X obj 30 249 outlet~;
#X obj 88 24 r tempo;
#X floatatom 88 56 5 0 0 0 - - -, f 5;
#X obj 177 37 r ambitus;
#X floatatom 177 64 5 0 0 0 - - -, f 5;
#X obj 237 94 r offset;
#X floatatom 237 119 5 0 0 0 - - -, f 5;
#X connect 0 0 1 0;
#X connect 1 0 2 0;
#X connect 2 0 3 0;
#X connect 3 0 4 0;
#X connect 4 0 5 0;
#X connect 5 0 6 0;
#X connect 6 0 7 0;
#X connect 8 0 9 0;
#X connect 9 0 2 1;
#X connect 10 0 11 0;
#X connect 11 0 3 1;
#X connect 12 0 13 0;
#X connect 13 0 4 1;
#X restore 794 384 pd o1;
#N canvas 2124 105 450 300 trick 0;
#X obj 150 93 bng 15 250 50 0 empty empty empty 17 7 0 10 -262144 -1
-1;
#X msg 149 171 0;
#X obj 150 129 delay 150;
#X obj 144 56 inlet;
#X obj 147 212 outlet;
#X obj 248 91 outlet;
#X connect 0 0 2 0;
#X connect 0 0 5 0;
#X connect 1 0 4 0;
#X connect 2 0 1 0;
#X connect 3 0 0 0;
#X restore 784 340 pd trick;
#X obj 798 362 tgl 15 0 empty empty empty 17 7 0 10 -262144 -1 -1 0
1;
#N canvas 1964 26 450 300 o1 0;
#X obj 29 28 inlet;
#X obj 29 56 tgl 15 0 empty empty empty 0 -6 0 8 -262144 -1 -1 0 1
;
#X obj 29 78 metro 80;
#X obj 29 105 random 100;
#X obj 29 163 + 20;
#X obj 29 190 mtof;
#X obj 29 219 osc~;
#X obj 30 249 outlet~;
#X obj 88 24 r tempo;
#X floatatom 88 56 5 0 0 0 - - -, f 5;
#X obj 177 37 r ambitus;
#X floatatom 177 64 5 0 0 0 - - -, f 5;
#X obj 237 94 r offset;
#X floatatom 237 119 5 0 0 0 - - -, f 5;
#X connect 0 0 1 0;
#X connect 1 0 2 0;
#X connect 2 0 3 0;
#X connect 3 0 4 0;
#X connect 4 0 5 0;
#X connect 5 0 6 0;
#X connect 6 0 7 0;
#X connect 8 0 9 0;
#X connect 9 0 2 1;
#X connect 10 0 11 0;
#X connect 11 0 3 1;
#X connect 12 0 13 0;
#X connect 13 0 4 1;
#X restore 851 383 pd o1;
#N canvas 2124 105 450 300 trick 0;
#X obj 150 93 bng 15 250 50 0 empty empty empty 17 7 0 10 -262144 -1
-1;
#X msg 149 171 0;
#X obj 150 129 delay 150;
#X obj 144 56 inlet;
#X obj 147 212 outlet;
#X obj 248 91 outlet;
#X connect 0 0 2 0;
#X connect 0 0 5 0;
#X connect 1 0 4 0;
#X connect 2 0 1 0;
#X connect 3 0 0 0;
#X restore 841 339 pd trick;
#X obj 855 361 tgl 15 0 empty empty empty 17 7 0 10 -262144 -1 -1 0
1;
#N canvas 1964 26 450 300 o1 0;
#X obj 29 28 inlet;
#X obj 29 56 tgl 15 0 empty empty empty 0 -6 0 8 -262144 -1 -1 0 1
;
#X obj 29 78 metro 80;
#X obj 29 105 random 100;
#X obj 29 163 + 20;
#X obj 29 190 mtof;
#X obj 29 219 osc~;
#X obj 30 249 outlet~;
#X obj 88 24 r tempo;
#X floatatom 88 56 5 0 0 0 - - -, f 5;
#X obj 177 37 r ambitus;
#X floatatom 177 64 5 0 0 0 - - -, f 5;
#X obj 237 94 r offset;
#X floatatom 237 119 5 0 0 0 - - -, f 5;
#X connect 0 0 1 0;
#X connect 1 0 2 0;
#X connect 2 0 3 0;
#X connect 3 0 4 0;
#X connect 4 0 5 0;
#X connect 5 0 6 0;
#X connect 6 0 7 0;
#X connect 8 0 9 0;
#X connect 9 0 2 1;
#X connect 10 0 11 0;
#X connect 11 0 3 1;
#X connect 12 0 13 0;
#X connect 13 0 4 1;
#X restore 906 383 pd o1;
#N canvas 2124 105 450 300 trick 0;
#X obj 150 93 bng 15 250 50 0 empty empty empty 17 7 0 10 -262144 -1
-1;
#X msg 149 171 0;
#X obj 150 129 delay 150;
#X obj 144 56 inlet;
#X obj 147 212 outlet;
#X obj 248 91 outlet;
#X connect 0 0 2 0;
#X connect 0 0 5 0;
#X connect 1 0 4 0;
#X connect 2 0 1 0;
#X connect 3 0 0 0;
#X restore 896 339 pd trick;
#X obj 910 361 tgl 15 0 empty empty empty 17 7 0 10 -262144 -1 -1 0
1;
#N canvas 1964 26 450 300 o1 0;
#X obj 29 28 inlet;
#X obj 29 56 tgl 15 0 empty empty empty 0 -6 0 8 -262144 -1 -1 0 1
;
#X obj 29 78 metro 80;
#X obj 29 105 random 100;
#X obj 29 163 + 20;
#X obj 29 190 mtof;
#X obj 29 219 osc~;
#X obj 30 249 outlet~;
#X obj 88 24 r tempo;
#X floatatom 88 56 5 0 0 0 - - -, f 5;
#X obj 177 37 r ambitus;
#X floatatom 177 64 5 0 0 0 - - -, f 5;
#X obj 237 94 r offset;
#X floatatom 237 119 5 0 0 0 - - -, f 5;
#X connect 0 0 1 0;
#X connect 1 0 2 0;
#X connect 2 0 3 0;
#X connect 3 0 4 0;
#X connect 4 0 5 0;
#X connect 5 0 6 0;
#X connect 6 0 7 0;
#X connect 8 0 9 0;
#X connect 9 0 2 1;
#X connect 10 0 11 0;
#X connect 11 0 3 1;
#X connect 12 0 13 0;
#X connect 13 0 4 1;
#X restore 962 383 pd o1;
#N canvas 2124 105 450 300 trick 0;
#X obj 150 93 bng 15 250 50 0 empty empty empty 17 7 0 10 -262144 -1
-1;
#X msg 149 171 0;
#X obj 150 129 delay 150;
#X obj 144 56 inlet;
#X obj 147 212 outlet;
#X obj 248 91 outlet;
#X connect 0 0 2 0;
#X connect 0 0 5 0;
#X connect 1 0 4 0;
#X connect 2 0 1 0;
#X connect 3 0 0 0;
#X restore 952 339 pd trick;
#X obj 966 361 tgl 15 0 empty empty empty 17 7 0 10 -262144 -1 -1 0
1;
#N canvas 1964 26 450 300 o1 0;
#X obj 29 28 inlet;
#X obj 29 56 tgl 15 0 empty empty empty 0 -6 0 8 -262144 -1 -1 0 1
;
#X obj 29 78 metro 80;
#X obj 29 105 random 100;
#X obj 29 163 + 20;
#X obj 29 190 mtof;
#X obj 29 219 osc~;
#X obj 30 249 outlet~;
#X obj 88 24 r tempo;
#X floatatom 88 56 5 0 0 0 - - -, f 5;
#X obj 177 37 r ambitus;
#X floatatom 177 64 5 0 0 0 - - -, f 5;
#X obj 237 94 r offset;
#X floatatom 237 119 5 0 0 0 - - -, f 5;
#X connect 0 0 1 0;
#X connect 1 0 2 0;
#X connect 2 0 3 0;
#X connect 3 0 4 0;
#X connect 4 0 5 0;
#X connect 5 0 6 0;
#X connect 6 0 7 0;
#X connect 8 0 9 0;
#X connect 9 0 2 1;
#X connect 10 0 11 0;
#X connect 11 0 3 1;
#X connect 12 0 13 0;
#X connect 13 0 4 1;
#X restore 1017 383 pd o1;
#N canvas 2124 105 450 300 trick 0;
#X obj 150 93 bng 15 250 50 0 empty empty empty 17 7 0 10 -262144 -1
-1;
#X msg 149 171 0;
#X obj 150 129 delay 150;
#X obj 144 56 inlet;
#X obj 147 212 outlet;
#X obj 248 91 outlet;
#X connect 0 0 2 0;
#X connect 0 0 5 0;
#X connect 1 0 4 0;
#X connect 2 0 1 0;
#X connect 3 0 0 0;
#X restore 1007 339 pd trick;
#X obj 1021 361 tgl 15 0 empty empty empty 17 7 0 10 -262144 -1 -1
0 1;
#N canvas 1964 26 450 300 o1 0;
#X obj 29 28 inlet;
#X obj 29 56 tgl 15 0 empty empty empty 0 -6 0 8 -262144 -1 -1 0 1
;
#X obj 29 78 metro 80;
#X obj 29 105 random 100;
#X obj 29 163 + 20;
#X obj 29 190 mtof;
#X obj 29 219 osc~;
#X obj 30 249 outlet~;
#X obj 88 24 r tempo;
#X floatatom 88 56 5 0 0 0 - - -, f 5;
#X obj 177 37 r ambitus;
#X floatatom 177 64 5 0 0 0 - - -, f 5;
#X obj 237 94 r offset;
#X floatatom 237 119 5 0 0 0 - - -, f 5;
#X connect 0 0 1 0;
#X connect 1 0 2 0;
#X connect 2 0 3 0;
#X connect 3 0 4 0;
#X connect 4 0 5 0;
#X connect 5 0 6 0;
#X connect 6 0 7 0;
#X connect 8 0 9 0;
#X connect 9 0 2 1;
#X connect 10 0 11 0;
#X connect 11 0 3 1;
#X connect 12 0 13 0;
#X connect 13 0 4 1;
#X restore 1074 382 pd o1;
#N canvas 2124 105 450 300 trick 0;
#X obj 150 93 bng 15 250 50 0 empty empty empty 17 7 0 10 -262144 -1
-1;
#X msg 149 171 0;
#X obj 150 129 delay 150;
#X obj 144 56 inlet;
#X obj 147 212 outlet;
#X obj 248 91 outlet;
#X connect 0 0 2 0;
#X connect 0 0 5 0;
#X connect 1 0 4 0;
#X connect 2 0 1 0;
#X connect 3 0 0 0;
#X restore 1064 338 pd trick;
#X obj 1078 360 tgl 15 0 empty empty empty 17 7 0 10 -262144 -1 -1
0 1;
#N canvas 1964 26 450 300 o1 0;
#X obj 29 28 inlet;
#X obj 29 56 tgl 15 0 empty empty empty 0 -6 0 8 -262144 -1 -1 0 1
;
#X obj 29 78 metro 80;
#X obj 29 105 random 100;
#X obj 29 163 + 20;
#X obj 29 190 mtof;
#X obj 29 219 osc~;
#X obj 30 249 outlet~;
#X obj 88 24 r tempo;
#X floatatom 88 56 5 0 0 0 - - -, f 5;
#X obj 177 37 r ambitus;
#X floatatom 177 64 5 0 0 0 - - -, f 5;
#X obj 237 94 r offset;
#X floatatom 237 119 5 0 0 0 - - -, f 5;
#X connect 0 0 1 0;
#X connect 1 0 2 0;
#X connect 2 0 3 0;
#X connect 3 0 4 0;
#X connect 4 0 5 0;
#X connect 5 0 6 0;
#X connect 6 0 7 0;
#X connect 8 0 9 0;
#X connect 9 0 2 1;
#X connect 10 0 11 0;
#X connect 11 0 3 1;
#X connect 12 0 13 0;
#X connect 13 0 4 1;
#X restore 1129 382 pd o1;
#N canvas 2124 105 450 300 trick 0;
#X obj 150 93 bng 15 250 50 0 empty empty empty 17 7 0 10 -262144 -1
-1;
#X msg 149 171 0;
#X obj 150 129 delay 150;
#X obj 144 56 inlet;
#X obj 147 212 outlet;
#X obj 248 91 outlet;
#X connect 0 0 2 0;
#X connect 0 0 5 0;
#X connect 1 0 4 0;
#X connect 2 0 1 0;
#X connect 3 0 0 0;
#X restore 1119 338 pd trick;
#X obj 1133 360 tgl 15 0 empty empty empty 17 7 0 10 -262144 -1 -1
0 1;
#N canvas 1964 26 450 300 o1 0;
#X obj 29 28 inlet;
#X obj 29 56 tgl 15 0 empty empty empty 0 -6 0 8 -262144 -1 -1 0 1
;
#X obj 29 78 metro 80;
#X obj 29 105 random 100;
#X obj 29 163 + 20;
#X obj 29 190 mtof;
#X obj 29 219 osc~;
#X obj 30 249 outlet~;
#X obj 88 24 r tempo;
#X floatatom 88 56 5 0 0 0 - - -, f 5;
#X obj 177 37 r ambitus;
#X floatatom 177 64 5 0 0 0 - - -, f 5;
#X obj 237 94 r offset;
#X floatatom 237 119 5 0 0 0 - - -, f 5;
#X connect 0 0 1 0;
#X connect 1 0 2 0;
#X connect 2 0 3 0;
#X connect 3 0 4 0;
#X connect 4 0 5 0;
#X connect 5 0 6 0;
#X connect 6 0 7 0;
#X connect 8 0 9 0;
#X connect 9 0 2 1;
#X connect 10 0 11 0;
#X connect 11 0 3 1;
#X connect 12 0 13 0;
#X connect 13 0 4 1;
#X restore 1184 381 pd o1;
#N canvas 2124 105 450 300 trick 0;
#X obj 150 93 bng 15 250 50 0 empty empty empty 17 7 0 10 -262144 -1
-1;
#X msg 149 171 0;
#X obj 150 129 delay 150;
#X obj 144 56 inlet;
#X obj 147 212 outlet;
#X obj 248 91 outlet;
#X connect 0 0 2 0;
#X connect 0 0 5 0;
#X connect 1 0 4 0;
#X connect 2 0 1 0;
#X connect 3 0 0 0;
#X restore 1174 337 pd trick;
#X obj 1188 359 tgl 15 0 empty empty empty 17 7 0 10 -262144 -1 -1
0 1;
#N canvas 1964 26 450 300 o1 0;
#X obj 29 28 inlet;
#X obj 29 56 tgl 15 0 empty empty empty 0 -6 0 8 -262144 -1 -1 0 1
;
#X obj 29 78 metro 80;
#X obj 29 105 random 100;
#X obj 29 163 + 20;
#X obj 29 190 mtof;
#X obj 29 219 osc~;
#X obj 30 249 outlet~;
#X obj 88 24 r tempo;
#X floatatom 88 56 5 0 0 0 - - -, f 5;
#X obj 177 37 r ambitus;
#X floatatom 177 64 5 0 0 0 - - -, f 5;
#X obj 237 94 r offset;
#X floatatom 237 119 5 0 0 0 - - -, f 5;
#X connect 0 0 1 0;
#X connect 1 0 2 0;
#X connect 2 0 3 0;
#X connect 3 0 4 0;
#X connect 4 0 5 0;
#X connect 5 0 6 0;
#X connect 6 0 7 0;
#X connect 8 0 9 0;
#X connect 9 0 2 1;
#X connect 10 0 11 0;
#X connect 11 0 3 1;
#X connect 12 0 13 0;
#X connect 13 0 4 1;
#X restore 1239 381 pd o1;
#N canvas 2124 105 450 300 trick 0;
#X obj 150 93 bng 15 250 50 0 empty empty empty 17 7 0 10 -262144 -1
-1;
#X msg 149 171 0;
#X obj 150 129 delay 150;
#X obj 144 56 inlet;
#X obj 147 212 outlet;
#X obj 248 91 outlet;
#X connect 0 0 2 0;
#X connect 0 0 5 0;
#X connect 1 0 4 0;
#X connect 2 0 1 0;
#X connect 3 0 0 0;
#X restore 1229 337 pd trick;
#X obj 1243 359 tgl 15 0 empty empty empty 17 7 0 10 -262144 -1 -1
0 1;
#N canvas 1964 26 450 300 o1 0;
#X obj 29 28 inlet;
#X obj 29 56 tgl 15 0 empty empty empty 0 -6 0 8 -262144 -1 -1 0 1
;
#X obj 29 78 metro 80;
#X obj 29 105 random 100;
#X obj 29 163 + 20;
#X obj 29 190 mtof;
#X obj 29 219 osc~;
#X obj 30 249 outlet~;
#X obj 88 24 r tempo;
#X floatatom 88 56 5 0 0 0 - - -, f 5;
#X obj 177 37 r ambitus;
#X floatatom 177 64 5 0 0 0 - - -, f 5;
#X obj 237 94 r offset;
#X floatatom 237 119 5 0 0 0 - - -, f 5;
#X connect 0 0 1 0;
#X connect 1 0 2 0;
#X connect 2 0 3 0;
#X connect 3 0 4 0;
#X connect 4 0 5 0;
#X connect 5 0 6 0;
#X connect 6 0 7 0;
#X connect 8 0 9 0;
#X connect 9 0 2 1;
#X connect 10 0 11 0;
#X connect 11 0 3 1;
#X connect 12 0 13 0;
#X connect 13 0 4 1;
#X restore 1296 380 pd o1;
#N canvas 2124 105 450 300 trick 0;
#X obj 150 93 bng 15 250 50 0 empty empty empty 17 7 0 10 -262144 -1
-1;
#X msg 149 171 0;
#X obj 150 129 delay 150;
#X obj 144 56 inlet;
#X obj 147 212 outlet;
#X obj 248 91 outlet;
#X connect 0 0 2 0;
#X connect 0 0 5 0;
#X connect 1 0 4 0;
#X connect 2 0 1 0;
#X connect 3 0 0 0;
#X restore 1286 336 pd trick;
#X obj 1300 358 tgl 15 0 empty empty empty 17 7 0 10 -262144 -1 -1
0 1;
#N canvas 1964 26 450 300 o1 0;
#X obj 29 28 inlet;
#X obj 29 56 tgl 15 0 empty empty empty 0 -6 0 8 -262144 -1 -1 0 1
;
#X obj 29 78 metro 80;
#X obj 29 105 random 100;
#X obj 29 163 + 20;
#X obj 29 190 mtof;
#X obj 29 219 osc~;
#X obj 30 249 outlet~;
#X obj 88 24 r tempo;
#X floatatom 88 56 5 0 0 0 - - -, f 5;
#X obj 177 37 r ambitus;
#X floatatom 177 64 5 0 0 0 - - -, f 5;
#X obj 237 94 r offset;
#X floatatom 237 119 5 0 0 0 - - -, f 5;
#X connect 0 0 1 0;
#X connect 1 0 2 0;
#X connect 2 0 3 0;
#X connect 3 0 4 0;
#X connect 4 0 5 0;
#X connect 5 0 6 0;
#X connect 6 0 7 0;
#X connect 8 0 9 0;
#X connect 9 0 2 1;
#X connect 10 0 11 0;
#X connect 11 0 3 1;
#X connect 12 0 13 0;
#X connect 13 0 4 1;
#X restore 1351 380 pd o1;
#N canvas 2124 105 450 300 trick 0;
#X obj 150 93 bng 15 250 50 0 empty empty empty 17 7 0 10 -262144 -1
-1;
#X msg 149 171 0;
#X obj 150 129 delay 150;
#X obj 144 56 inlet;
#X obj 147 212 outlet;
#X obj 248 91 outlet;
#X connect 0 0 2 0;
#X connect 0 0 5 0;
#X connect 1 0 4 0;
#X connect 2 0 1 0;
#X connect 3 0 0 0;
#X restore 1341 336 pd trick;
#X obj 1355 358 tgl 15 0 empty empty empty 17 7 0 10 -262144 -1 -1
0 1;
#X obj 604 283 select 0 1 2 3 4 5 6 7 8 9 10 11 12 13 14 15;
#X obj 810 621 *~;
#X obj 279 232 random 100;
#X obj 279 259 t f f;
#X floatatom 295 305 5 0 0 0 - - -, f 5;
#X obj 209 283 metro 1000;
#X obj 209 241 tgl 15 0 empty empty empty 17 7 0 10 -262144 -1 -1 0
1;
#X obj 133 364 metro 1000;
#X obj 431 40 * 10;
#X connect 2 0 6 1;
#X connect 3 0 18 1;
#X connect 3 0 92 1;
#X connect 4 0 90 0;
#X connect 5 0 7 0;
#X connect 6 0 0 0;
#X connect 6 0 3 0;
#X connect 7 0 2 0;
#X connect 8 0 10 0;
#X connect 8 0 11 0;
#X connect 9 0 8 1;
#X connect 10 0 32 0;
#X connect 12 0 97 1;
#X connect 13 0 97 0;
#X connect 15 0 17 1;
#X connect 16 0 19 0;
#X connect 16 0 26 0;
#X connect 17 0 14 0;
#X connect 17 0 15 0;
#X connect 17 0 18 0;
#X connect 17 0 9 0;
#X connect 18 0 16 0;
#X connect 19 0 17 0;
#X connect 20 0 21 1;
#X connect 21 0 20 0;
#X connect 21 0 22 0;
#X connect 21 0 2 0;
#X connect 23 0 21 0;
#X connect 24 0 23 1;
#X connect 25 0 23 0;
#X connect 26 0 25 0;
#X connect 26 0 28 0;
#X connect 27 0 25 0;
#X connect 28 0 27 0;
#X connect 32 0 31 0;
#X connect 32 0 4 0;
#X connect 33 0 91 0;
#X connect 35 0 34 0;
#X connect 36 0 37 0;
#X connect 38 0 39 0;
#X connect 40 0 91 1;
#X connect 41 0 40 0;
#X connect 42 0 41 0;
#X connect 43 0 44 0;
#X connect 43 1 44 0;
#X connect 44 0 33 0;
#X connect 45 0 91 0;
#X connect 46 0 47 0;
#X connect 46 1 47 0;
#X connect 47 0 45 0;
#X connect 48 0 91 0;
#X connect 49 0 50 0;
#X connect 49 1 50 0;
#X connect 50 0 48 0;
#X connect 51 0 91 0;
#X connect 52 0 53 0;
#X connect 52 1 53 0;
#X connect 53 0 51 0;
#X connect 54 0 91 0;
#X connect 55 0 56 0;
#X connect 55 1 56 0;
#X connect 56 0 54 0;
#X connect 57 0 91 0;
#X connect 58 0 59 0;
#X connect 58 1 59 0;
#X connect 59 0 57 0;
#X connect 60 0 91 0;
#X connect 61 0 62 0;
#X connect 61 1 62 0;
#X connect 62 0 60 0;
#X connect 63 0 91 0;
#X connect 64 0 65 0;
#X connect 64 1 65 0;
#X connect 65 0 63 0;
#X connect 66 0 91 0;
#X connect 67 0 68 0;
#X connect 67 1 68 0;
#X connect 68 0 66 0;
#X connect 69 0 91 0;
#X connect 70 0 71 0;
#X connect 70 1 71 0;
#X connect 71 0 69 0;
#X connect 72 0 91 0;
#X connect 73 0 74 0;
#X connect 73 1 74 0;
#X connect 74 0 72 0;
#X connect 75 0 91 0;
#X connect 76 0 77 0;
#X connect 76 1 77 0;
#X connect 77 0 75 0;
#X connect 78 0 91 0;
#X connect 79 0 80 0;
#X connect 79 1 80 0;
#X connect 80 0 78 0;
#X connect 81 0 91 0;
#X connect 82 0 83 0;
#X connect 82 1 83 0;
#X connect 83 0 81 0;
#X connect 84 0 91 0;
#X connect 85 0 86 0;
#X connect 85 1 86 0;
#X connect 86 0 84 0;
#X connect 87 0 91 0;
#X connect 88 0 89 0;
#X connect 88 1 89 0;
#X connect 89 0 87 0;
#X connect 90 0 43 0;
#X connect 90 1 46 0;
#X connect 90 2 49 0;
#X connect 90 3 52 0;
#X connect 90 4 55 0;
#X connect 90 5 58 0;
#X connect 90 6 61 0;
#X connect 90 7 64 0;
#X connect 90 8 67 0;
#X connect 90 9 70 0;
#X connect 90 10 73 0;
#X connect 90 11 76 0;
#X connect 90 12 79 0;
#X connect 90 13 82 0;
#X connect 90 14 85 0;
#X connect 90 15 88 0;
#X connect 91 0 1 0;
#X connect 91 0 1 1;
#X connect 92 0 93 0;
#X connect 93 0 95 1;
#X connect 93 1 94 0;
#X connect 94 0 98 0;
#X connect 95 0 92 0;
#X connect 96 0 95 0;
#X connect 97 0 17 0;
#X connect 98 0 35 0;
